<svg width="348" height="303" viewBox="0 0 348 303" fill="none" xmlns="http://www.w3.org/2000/svg">
<circle cx="174.956" cy="152.011" r="93.6923" fill="#1C0D34" stroke="#6622A1" stroke-width="5.73626"/>
<path d="M117.716 146.286C116.056 146.286 114.844 145.903 114.079 145.138C113.314 144.374 112.932 143.161 112.932 141.502V132.106C112.932 131.922 112.985 131.777 113.092 131.67C113.207 131.555 113.356 131.498 113.54 131.498C113.723 131.498 113.869 131.555 113.976 131.67C114.083 131.777 114.136 131.922 114.136 132.106V141.502C114.136 142.389 114.251 143.093 114.481 143.613C114.71 144.133 115.085 144.507 115.605 144.737C116.125 144.966 116.829 145.081 117.716 145.081H120.469C121.349 145.081 122.049 144.966 122.569 144.737C123.089 144.507 123.464 144.133 123.693 143.613C123.922 143.093 124.037 142.389 124.037 141.502V132.106C124.037 131.922 124.091 131.777 124.198 131.67C124.312 131.555 124.462 131.498 124.645 131.498C124.829 131.498 124.974 131.555 125.081 131.67C125.188 131.777 125.242 131.922 125.242 132.106V141.502C125.242 143.161 124.859 144.374 124.095 145.138C123.337 145.903 122.129 146.286 120.469 146.286H117.716ZM130.034 146.286C129.629 146.286 129.426 146.083 129.426 145.678V132.106C129.426 131.7 129.629 131.498 130.034 131.498C130.248 131.498 130.455 131.616 130.654 131.853L140.371 144.335H140.096V132.106C140.096 131.7 140.298 131.498 140.704 131.498C141.101 131.498 141.3 131.7 141.3 132.106V145.678C141.3 146.083 141.101 146.286 140.704 146.286C140.482 146.286 140.275 146.167 140.084 145.93L130.355 133.448H130.631V145.678C130.631 146.083 130.432 146.286 130.034 146.286ZM146.19 146.286C145.785 146.286 145.582 146.083 145.582 145.678V132.106C145.582 131.7 145.785 131.498 146.19 131.498H154.783C155.188 131.498 155.391 131.7 155.391 132.106C155.391 132.503 155.188 132.702 154.783 132.702H146.786V138.198H152.075C152.481 138.198 152.683 138.396 152.683 138.794C152.683 139.2 152.481 139.402 152.075 139.402H146.786V145.081H154.783C155.188 145.081 155.391 145.28 155.391 145.678C155.391 146.083 155.188 146.286 154.783 146.286H146.19ZM157.537 146.148C157.216 145.919 157.163 145.639 157.377 145.311L161.989 138.576L157.629 132.473C157.4 132.159 157.449 131.88 157.778 131.635C158.099 131.406 158.382 131.456 158.627 131.784L162.78 137.612L167.082 131.773C167.327 131.452 167.61 131.41 167.931 131.647C168.253 131.884 168.295 132.163 168.058 132.484L163.537 138.668L168.287 145.299C168.517 145.62 168.467 145.903 168.138 146.148C167.817 146.377 167.541 146.328 167.312 145.999L162.734 139.62L158.375 145.987C158.145 146.316 157.866 146.37 157.537 146.148ZM172.272 146.286C171.867 146.286 171.664 146.083 171.664 145.678V132.106C171.664 131.7 171.867 131.498 172.272 131.498H177.641C178.949 131.498 179.936 131.834 180.601 132.507C181.274 133.18 181.611 134.171 181.611 135.479V136.167C181.611 137.467 181.274 138.454 180.601 139.127C179.936 139.8 178.949 140.136 177.641 140.136H172.869V145.678C172.869 146.083 172.67 146.286 172.272 146.286ZM172.869 138.932H177.641C178.605 138.932 179.305 138.714 179.741 138.278C180.184 137.834 180.406 137.131 180.406 136.167V135.479C180.406 134.507 180.184 133.804 179.741 133.368C179.305 132.924 178.605 132.702 177.641 132.702H172.869V138.932ZM185.134 146.286C184.728 146.286 184.526 146.083 184.526 145.678V132.106C184.526 131.7 184.728 131.498 185.134 131.498H193.727C194.132 131.498 194.335 131.7 194.335 132.106C194.335 132.503 194.132 132.702 193.727 132.702H185.73V138.198H191.019C191.425 138.198 191.627 138.396 191.627 138.794C191.627 139.2 191.425 139.402 191.019 139.402H185.73V145.081H193.727C194.132 145.081 194.335 145.28 194.335 145.678C194.335 146.083 194.132 146.286 193.727 146.286H185.134ZM201.414 146.286C199.754 146.286 198.542 145.903 197.777 145.138C197.012 144.374 196.63 143.161 196.63 141.502V136.282C196.63 134.607 197.008 133.391 197.765 132.633C198.53 131.876 199.739 131.498 201.391 131.498H204.167C205.574 131.498 206.622 131.792 207.31 132.381C207.999 132.962 208.377 133.899 208.446 135.192C208.469 135.398 208.427 135.555 208.32 135.662C208.221 135.769 208.072 135.823 207.873 135.823C207.49 135.823 207.28 135.62 207.242 135.215C207.188 134.266 206.928 133.612 206.462 133.253C205.995 132.886 205.23 132.702 204.167 132.702H201.391C200.511 132.702 199.811 132.817 199.291 133.046C198.771 133.268 198.396 133.643 198.167 134.171C197.945 134.691 197.834 135.394 197.834 136.282V141.502C197.834 142.389 197.949 143.093 198.178 143.613C198.408 144.133 198.783 144.507 199.303 144.737C199.823 144.966 200.526 145.081 201.414 145.081H204.167C205.23 145.081 205.995 144.901 206.462 144.542C206.928 144.175 207.188 143.517 207.242 142.569C207.28 142.163 207.49 141.961 207.873 141.961C208.072 141.961 208.221 142.018 208.32 142.133C208.427 142.24 208.469 142.393 208.446 142.592C208.377 143.884 207.999 144.825 207.31 145.414C206.622 145.995 205.574 146.286 204.167 146.286H201.414ZM216.57 146.297C216.386 146.297 216.237 146.244 216.122 146.137C216.015 146.029 215.962 145.884 215.962 145.701V132.691H211.086C210.902 132.691 210.753 132.637 210.638 132.53C210.531 132.423 210.478 132.278 210.478 132.094C210.478 131.911 210.531 131.765 210.638 131.658C210.753 131.544 210.902 131.486 211.086 131.486H222.054C222.237 131.486 222.382 131.544 222.49 131.658C222.597 131.765 222.65 131.911 222.65 132.094C222.65 132.278 222.597 132.423 222.49 132.53C222.382 132.637 222.237 132.691 222.054 132.691H217.166V145.701C217.166 145.877 217.109 146.022 216.994 146.137C216.887 146.244 216.746 146.297 216.57 146.297ZM225.825 146.286C225.42 146.286 225.217 146.083 225.217 145.678V132.106C225.217 131.7 225.42 131.498 225.825 131.498H234.418C234.824 131.498 235.026 131.7 235.026 132.106C235.026 132.503 234.824 132.702 234.418 132.702H226.422V138.198H231.711C232.116 138.198 232.319 138.396 232.319 138.794C232.319 139.2 232.116 139.402 231.711 139.402H226.422V145.081H234.418C234.824 145.081 235.026 145.28 235.026 145.678C235.026 146.083 234.824 146.286 234.418 146.286H225.825ZM238.687 146.286C238.282 146.286 238.079 146.083 238.079 145.678V132.106C238.079 131.7 238.282 131.498 238.687 131.498H244.217C246.121 131.498 247.506 131.934 248.37 132.805C249.242 133.677 249.678 135.066 249.678 136.97V140.813C249.678 142.718 249.242 144.106 248.37 144.978C247.506 145.85 246.121 146.286 244.217 146.286H238.687ZM239.284 145.081H244.217C245.257 145.081 246.087 144.943 246.706 144.668C247.334 144.393 247.785 143.945 248.06 143.326C248.336 142.699 248.473 141.861 248.473 140.813V136.97C248.473 135.93 248.336 135.1 248.06 134.48C247.785 133.853 247.334 133.402 246.706 133.127C246.087 132.844 245.257 132.702 244.217 132.702H239.284V145.081Z" fill="white"/>
<path d="M119.433 174.967C117.773 174.967 116.561 174.585 115.796 173.82C115.031 173.055 114.649 171.843 114.649 170.183V164.963C114.649 163.288 115.027 162.072 115.785 161.315C116.549 160.558 117.758 160.179 119.41 160.179H122.186C123.594 160.179 124.641 160.473 125.33 161.062C126.018 161.644 126.397 162.581 126.466 163.873C126.488 164.08 126.446 164.236 126.339 164.343C126.24 164.451 126.091 164.504 125.892 164.504C125.509 164.504 125.299 164.301 125.261 163.896C125.207 162.948 124.947 162.294 124.481 161.934C124.014 161.567 123.249 161.384 122.186 161.384H119.41C118.53 161.384 117.831 161.498 117.31 161.728C116.79 161.95 116.416 162.324 116.186 162.852C115.964 163.372 115.853 164.076 115.853 164.963V170.183C115.853 171.07 115.968 171.774 116.198 172.294C116.427 172.814 116.802 173.189 117.322 173.418C117.842 173.648 118.546 173.762 119.433 173.762H122.186C123.249 173.762 124.014 173.583 124.481 173.223C124.947 172.856 125.207 172.198 125.261 171.25C125.299 170.845 125.509 170.642 125.892 170.642C126.091 170.642 126.24 170.699 126.339 170.814C126.446 170.921 126.488 171.074 126.466 171.273C126.397 172.565 126.018 173.506 125.33 174.095C124.641 174.676 123.594 174.967 122.186 174.967H119.433ZM130.826 174.967C130.642 174.967 130.493 174.913 130.379 174.806C130.271 174.692 130.218 174.543 130.218 174.359V160.787C130.218 160.603 130.271 160.458 130.379 160.351C130.493 160.236 130.642 160.179 130.826 160.179C131.01 160.179 131.155 160.236 131.262 160.351C131.369 160.458 131.423 160.603 131.423 160.787V166.867H141.048V160.787C141.048 160.603 141.102 160.458 141.209 160.351C141.316 160.236 141.461 160.179 141.645 160.179C141.828 160.179 141.973 160.236 142.081 160.351C142.195 160.458 142.253 160.603 142.253 160.787V174.359C142.253 174.543 142.195 174.692 142.081 174.806C141.973 174.913 141.828 174.967 141.645 174.967C141.461 174.967 141.316 174.913 141.209 174.806C141.102 174.692 141.048 174.543 141.048 174.359V168.072H131.423V174.359C131.423 174.543 131.369 174.692 131.262 174.806C131.155 174.913 131.01 174.967 130.826 174.967ZM145.394 174.91C145.027 174.749 144.916 174.481 145.061 174.107L150.752 160.649C150.874 160.336 151.1 160.179 151.429 160.179H151.497C151.811 160.187 152.033 160.343 152.163 160.649L157.853 174.107C158.006 174.481 157.899 174.749 157.532 174.91C157.157 175.063 156.897 174.956 156.752 174.588L155.226 170.975H147.712L146.186 174.588C146.033 174.956 145.769 175.063 145.394 174.91ZM148.205 169.77H154.721L151.463 162.083L148.205 169.77ZM161.255 174.967C160.85 174.967 160.647 174.764 160.647 174.359V160.787C160.647 160.382 160.85 160.179 161.255 160.179C161.469 160.179 161.676 160.297 161.875 160.535L171.592 173.017H171.316V160.787C171.316 160.382 171.519 160.179 171.924 160.179C172.322 160.179 172.521 160.382 172.521 160.787V174.359C172.521 174.764 172.322 174.967 171.924 174.967C171.703 174.967 171.496 174.848 171.305 174.611L161.576 162.129H161.852V174.359C161.852 174.764 161.653 174.967 161.255 174.967ZM181.277 174.967C179.617 174.967 178.405 174.585 177.64 173.82C176.875 173.055 176.493 171.843 176.493 170.183V164.963C176.493 163.288 176.871 162.072 177.629 161.315C178.394 160.558 179.602 160.179 181.254 160.179H184.03C185.438 160.179 186.485 160.473 187.174 161.062C187.862 161.644 188.241 162.581 188.31 163.873C188.333 164.08 188.29 164.236 188.183 164.343C188.084 164.451 187.935 164.504 187.736 164.504C187.354 164.504 187.143 164.301 187.105 163.896C187.051 162.948 186.791 162.294 186.325 161.934C185.858 161.567 185.093 161.384 184.03 161.384H181.254C180.374 161.384 179.675 161.498 179.155 161.728C178.634 161.95 178.26 162.324 178.03 162.852C177.808 163.372 177.698 164.076 177.698 164.963V170.183C177.698 171.07 177.812 171.774 178.042 172.294C178.271 172.814 178.646 173.189 179.166 173.418C179.686 173.648 180.39 173.762 181.277 173.762H184.03C184.81 173.762 185.426 173.667 185.877 173.476C186.336 173.284 186.661 172.963 186.853 172.512C187.044 172.061 187.139 171.437 187.139 170.642V169.208L184.627 169.185C184.229 169.185 184.03 168.982 184.03 168.577C184.03 168.179 184.229 167.98 184.627 167.98L187.747 168.003C188.145 168.003 188.344 168.202 188.344 168.6V170.642C188.344 172.156 188.004 173.258 187.323 173.946C186.642 174.627 185.545 174.967 184.03 174.967H181.277ZM192.692 174.967C192.287 174.967 192.084 174.764 192.084 174.359V160.787C192.084 160.382 192.287 160.179 192.692 160.179H201.285C201.691 160.179 201.893 160.382 201.893 160.787C201.893 161.185 201.691 161.384 201.285 161.384H193.289V166.879H198.578C198.983 166.879 199.186 167.078 199.186 167.475C199.186 167.881 198.983 168.084 198.578 168.084H193.289V173.762H201.285C201.691 173.762 201.893 173.961 201.893 174.359C201.893 174.764 201.691 174.967 201.285 174.967H192.692ZM208.744 174.944C207.375 174.944 206.357 174.642 205.692 174.038C205.034 173.426 204.682 172.466 204.636 171.158C204.629 170.975 204.679 170.829 204.786 170.722C204.9 170.607 205.049 170.55 205.233 170.55C205.417 170.55 205.562 170.604 205.669 170.711C205.776 170.818 205.837 170.963 205.853 171.147C205.883 172.11 206.113 172.783 206.541 173.166C206.969 173.548 207.703 173.739 208.744 173.739H212.048C213.134 173.739 213.887 173.529 214.308 173.108C214.736 172.68 214.95 171.931 214.95 170.86C214.95 169.774 214.736 169.02 214.308 168.6C213.887 168.171 213.134 167.957 212.048 167.957H208.904C207.558 167.957 206.571 167.644 205.944 167.017C205.317 166.389 205.004 165.407 205.004 164.068C205.004 162.73 205.313 161.747 205.933 161.12C206.56 160.493 207.543 160.179 208.881 160.179H212.094C213.379 160.179 214.331 160.466 214.95 161.039C215.577 161.613 215.914 162.516 215.96 163.747C215.975 163.93 215.925 164.08 215.811 164.194C215.704 164.301 215.554 164.355 215.363 164.355C215.187 164.355 215.046 164.301 214.939 164.194C214.832 164.087 214.771 163.942 214.755 163.758C214.725 162.879 214.51 162.263 214.113 161.911C213.715 161.559 213.042 161.384 212.094 161.384H208.881C207.879 161.384 207.183 161.582 206.793 161.98C206.403 162.37 206.208 163.066 206.208 164.068C206.208 165.07 206.403 165.77 206.793 166.168C207.191 166.558 207.895 166.753 208.904 166.753H212.048C213.47 166.753 214.51 167.085 215.168 167.751C215.826 168.409 216.155 169.445 216.155 170.86C216.155 172.275 215.826 173.311 215.168 173.969C214.51 174.619 213.47 174.944 212.048 174.944H208.744Z" fill="white"/>
</svg>
